HIERARCHY
ROOT hip
{
	OFFSET 0.000000 0.000000 0.000000 
	CHANNELS 6 Xposition Yposition Zposition Xrotation Zrotation Yrotation
	JOINT abdomen
	{
		OFFSET 0.000000 3.402643 0.000000 
		CHANNELS 3 Xrotation Zrotation Yrotation
		JOINT chest
		{
			OFFSET 0.000000 8.438565 -0.680529 
			CHANNELS 3 Xrotation Zrotation Yrotation
			JOINT neck
			{
				OFFSET 0.000000 10.207942 -0.272212 
				CHANNELS 3 Xrotation Zrotation Yrotation
				JOINT head
				{
					OFFSET 0.000000 3.130431 0.000000 
					CHANNELS 3 Xrotation Zrotation Yrotation
					End Site
					{
						OFFSET 0.000000 3.130435 0.000000 
					}
				}
			}
			JOINT lCollar
			{
				OFFSET 3.470700 6.669187 -0.816635 
				CHANNELS 3 Yrotation Zrotation Xrotation
				JOINT lShldr
				{
					OFFSET 3.198488 0.000000 0.000000 
					CHANNELS 3 Zrotation Yrotation Xrotation
					JOINT lForeArm
					{
						OFFSET 10.139888 0.000000 0.000000 
						CHANNELS 3 Yrotation Zrotation Xrotation
						JOINT lHand
						{
							OFFSET 8.370511 0.000000 0.000000 
							CHANNELS 3 Zrotation Yrotation Xrotation
							End Site
							{
								OFFSET 4.083176 0.000000 0.000000 
							}
						}
					}
				}
			}
			JOINT rCollar
			{
				OFFSET -3.470700 6.669187 -0.816635 
				CHANNELS 3 Yrotation Zrotation Xrotation
				JOINT rShldr
				{
					OFFSET -3.198488 0.000000 0.000000 
					CHANNELS 3 Zrotation Yrotation Xrotation
					JOINT rForeArm
					{
						OFFSET -10.139888 0.000000 0.000000 
						CHANNELS 3 Yrotation Zrotation Xrotation
						JOINT rHand
						{
							OFFSET -8.370511 0.000000 0.000000 
							CHANNELS 3 Zrotation Yrotation Xrotation
							End Site
							{
								OFFSET -4.083176 0.000000 0.000000 
							}
						}
					}
				}
			}
		}
	}
	JOINT lThigh
	{
		OFFSET 5.308129 -1.633274 1.361059 
		CHANNELS 3 Xrotation Zrotation Yrotation
		JOINT lShin
		{
			OFFSET -2.041588 -20.007561 0.000000 
			CHANNELS 3 Xrotation Zrotation Yrotation
			JOINT lFoot
			{
				OFFSET 0.000000 -19.190928 -1.224953 
				CHANNELS 3 Xrotation Yrotation Zrotation
				End Site
				{
					OFFSET 0.000000 -2.449906 4.627600 
				}
			}
		}
	}
	JOINT rThigh
	{
		OFFSET -5.308129 -1.633274 1.361059 
		CHANNELS 3 Xrotation Zrotation Yrotation
		JOINT rShin
		{
			OFFSET 2.041588 -20.007561 0.000000 
			CHANNELS 3 Xrotation Zrotation Yrotation
			JOINT rFoot
			{
				OFFSET 0.000000 -19.190928 -1.224953 
				CHANNELS 3 Xrotation Yrotation Zrotation
				End Site
				{
					OFFSET 0.000000 -2.449906 4.627600 
				}
			}
		}
	}
}
MOTION
Frames: 10
Frame Time: 0.011111
54.375706 53.574451 44.044693 3.877994 3.547587 -84.013832 25.636690 3.679432 1.110963 -21.401344 6.448434 0.053661 -8.832763 -2.858617 -3.412103 5.138597 10.606261 -6.722607 2.971642 -4.490881 1.927035 -73.773117 -40.355762 10.939052 -39.510666 4.557351 4.211950 8.524705 12.647240 -59.768929 -4.704987 0.510038 2.448925 75.362343 41.030792 -25.314650 34.604973 -2.629724 2.604981 -8.534408 -12.637552 26.410013 -7.906471 14.398197 -0.697913 29.753977 -5.342815 -4.834837 -25.124374 -4.040329 -4.117093 -4.955894 -1.580169 -3.597572 32.649693 5.165159 5.173052 -33.458012 -9.333509 -4.202310 
54.440128 53.595196 44.156254 3.881858 3.548883 -83.770302 25.726593 3.689952 1.263144 -21.489801 6.440213 0.083190 -9.087907 -2.800902 -3.501970 5.393365 10.185609 -6.895006 2.971642 -4.490881 1.927035 -73.451630 -40.129753 9.639408 -39.006840 4.377465 4.042029 8.524705 12.647240 -61.194717 -4.704987 0.510038 2.448925 74.527092 41.172497 -29.311756 32.289219 -1.624214 1.890873 -8.534408 -12.637552 23.031107 -8.123704 14.294960 -0.540691 29.914125 -5.332505 -4.856776 -25.115503 -4.391503 -4.279058 -4.967295 -1.785891 -3.896384 32.539143 5.180044 5.157830 -33.273918 -9.355453 -4.150270 
54.531269 53.613735 44.273476 4.030788 3.756213 -83.785500 25.695150 3.826306 1.752058 -21.617723 6.259632 0.193392 -9.368109 -3.059621 -3.696943 5.665917 10.516193 -7.318786 2.971642 -4.490881 1.927035 -73.282051 -40.153759 6.773815 -38.382595 4.143431 3.833996 8.524705 12.647240 -64.163467 -4.704987 0.510038 2.448925 74.694931 39.979305 -33.153667 32.999882 -1.931385 2.100593 -8.534408 -12.637552 19.515482 -8.561587 14.283143 -0.485641 30.055876 -5.308504 -4.892174 -25.034269 -4.343434 -4.265636 -5.315195 -1.803908 -3.905606 32.500874 5.180015 5.115564 -33.017666 -9.351801 -4.047223 
54.623032 53.626934 44.383160 4.213513 3.932975 -83.814621 25.683865 4.000160 2.226744 -21.588284 6.214569 0.296076 -9.759171 -3.724630 -3.772092 5.989397 11.472491 -7.591636 2.971642 -4.490881 1.927035 -72.676079 -39.387890 10.917582 -38.906006 4.341408 4.013724 8.524705 12.647240 -60.179089 -4.704987 0.510038 2.448925 74.328957 38.706417 -37.036983 33.286762 -2.065581 2.195272 -8.534408 -12.637552 16.917826 -8.940787 14.339332 -0.280742 30.125639 -5.308554 -4.888577 -24.941591 -4.352189 -4.277622 -5.661945 -1.708305 -3.531509 32.501953 5.165211 5.140667 -33.088032 -9.595281 -4.194513 
54.709148 53.652706 44.508244 4.255942 4.074692 -83.746948 25.739672 4.113870 2.558647 -21.509624 6.265540 0.371002 -10.097668 -4.111160 -3.793612 6.044908 11.642750 -7.734985 2.971642 -4.490881 1.927035 -72.583672 -39.106926 11.254747 -38.966175 4.358624 4.029262 8.524705 12.647240 -60.169323 -4.704987 0.510038 2.448925 74.511009 36.993973 -40.779636 34.456322 -2.573458 2.559557 -8.534408 -12.637552 14.984235 -9.206781 14.225676 -0.253125 30.074505 -5.318278 -4.886624 -24.721006 -4.397497 -4.305127 -5.993768 -1.844930 -3.463342 32.638786 5.174881 5.165115 -33.122452 -9.704266 -4.245975 
54.791798 53.681622 44.653114 3.927057 4.229038 -83.736183 25.799849 3.803850 2.793130 -21.509518 6.337544 0.466009 -10.297963 -4.320271 -3.876846 5.826281 11.504689 -7.984147 2.971642 -4.490881 1.927035 -72.609520 -38.774036 10.868796 -39.087475 4.408080 4.071257 8.524705 12.647240 -61.018936 -4.704987 0.510038 2.448925 74.189552 35.904934 -35.402153 34.168705 -2.451602 2.464442 -8.534408 -12.637552 22.845562 -9.292149 13.587334 -0.620075 29.933960 -5.332587 -4.858541 -24.484697 -4.087421 -4.146454 -6.418784 -2.565211 -4.284945 32.797943 5.170753 5.168213 -32.449478 -9.397767 -3.874073 
54.877277 53.717762 44.804283 3.292047 4.412446 -83.813019 25.925552 3.062007 3.018029 -21.578205 6.382844 0.603316 -10.606381 -4.509173 -4.010942 5.718809 11.575972 -8.344143 2.971642 -4.490881 1.927035 -72.444389 -38.426559 11.253127 -39.258549 4.468164 4.131802 8.524705 12.647240 -61.106819 -4.704987 0.510038 2.448925 74.098068 33.541664 -30.201481 35.102169 -2.841068 2.761542 -8.534408 -12.637552 28.265484 -9.197110 12.604849 -0.960763 29.753981 -5.342800 -4.834833 -24.268965 -3.586927 -3.924098 -6.961732 -3.583519 -4.706776 33.018257 5.150781 5.182625 -31.940102 -9.399665 -3.711657 
54.962132 53.733791 44.941303 3.148558 4.418974 -83.769279 26.221462 2.863490 3.500839 -21.656853 6.262725 0.746108 -10.784203 -4.379554 -4.296802 5.238947 11.274666 -8.944796 2.971642 -4.490881 1.927035 -72.216309 -38.246788 11.459898 -39.348991 4.497619 4.162374 8.524705 12.647240 -61.272835 -4.704987 0.510038 2.448925 73.190315 32.610298 -28.826584 34.237961 -2.480559 2.491314 -8.534408 -12.637552 26.761580 -9.080490 12.254077 -0.959766 29.495014 -5.351967 -4.794966 -24.025537 -3.497668 -3.888364 -7.244598 -3.866440 -4.571229 33.386642 5.116791 5.263515 -31.933105 -9.979035 -3.981064 
55.040386 53.717445 45.049103 3.030038 4.199141 -83.708244 26.762413 2.699782 3.850847 -21.755030 6.258750 0.843191 -10.766194 -4.266479 -4.548640 4.527562 10.882038 -9.515224 2.971642 -4.490881 1.927035 -72.122040 -37.907234 11.598291 -39.753468 4.654617 4.308632 8.524705 12.647240 -61.224007 -4.704987 0.510038 2.448925 73.552231 30.321802 -27.160995 36.288479 -3.327180 3.136503 -8.534408 -12.637552 26.097515 -8.779120 12.021319 -0.699356 29.304605 -5.362379 -4.780091 -23.787161 -3.698559 -4.005050 -7.272676 -4.060866 -4.435399 33.732910 5.106607 5.320827 -32.059200 -10.446255 -4.242502 
55.145042 53.707073 45.156582 2.213403 4.106036 -83.649292 27.298153 1.809029 3.612573 -22.000544 6.479158 0.855420 -10.770371 -4.490259 -4.575798 4.180976 11.051936 -9.650193 2.971642 -4.490881 1.927035 -72.004860 -37.245834 12.339790 -40.481308 4.909851 4.559388 8.524705 12.647240 -60.061905 -4.704987 0.510038 2.448925 73.408195 29.106398 -27.402639 36.318424 -3.341040 3.151180 -8.534408 -12.637552 23.646343 -8.549677 11.019320 -0.581428 29.393974 -5.362501 -4.787974 -23.594080 -3.930816 -4.087245 -7.459432 -5.018396 -4.187173 33.874043 5.087568 5.317923 -32.167454 -10.630589 -4.383391 
